<svg height="512pt" viewBox="-26 0 512 512" width="512pt" xmlns="http://www.w3.org/2000/svg"><g fill-rule="evenodd"><path d="m137.824219 502v-97.390625l-50.261719 39.445313v-59.613282c-45.609375 19.527344-77.5625 64.808594-77.5625 117.558594zm0 0" fill="#ffd777"/><path d="m87.5625 444.054688 50.261719-39.445313c-19.425781 0-37.144531-7.6875-50.261719-20.167969zm0 0" fill="#ffba4a"/><path d="m137.824219 404.609375 50.265625 39.445313v-59.613282c-13.121094 12.480469-30.835938 20.167969-50.265625 20.167969zm0 0" fill="#ffba4a"/><path d="m188.089844 444.054688-50.265625-39.445313v97.390625h127.828125c0-52.75-31.957032-98.03125-77.5625-117.558594zm0 0" fill="#ffd777"/><path d="m137.824219 404.609375c19.429687 0 37.148437-7.6875 50.265625-20.167969 14.011718-13.328125 22.78125-32.128906 22.78125-52.875v-36.523437c-16.207032 6.699219-40.292969 1.617187-54.992188-15.765625-21.46875 15.390625-63.339844 33.492187-91.097656 15.765625v36.523437c0 20.746094 8.769531 39.546875 22.78125 52.875 13.117188 12.480469 30.835938 20.167969 50.261719 20.167969zm0 0" fill="#f4cdac"/><path d="m155.878906 279.273438c14.699219 17.382812 38.785156 22.46875 54.988282 15.769531 0-40.171875-32.867188-73.042969-73.042969-73.042969-40.171875 0-73.042969 32.867188-73.042969 73.042969 27.757812 17.726562 69.628906-.378907 91.097656-15.769531zm0 0" fill="#aa836d"/><path d="m449.996094 130c0 66.273438-53.722656 120-120 120-66.273438 0-119.996094-53.726562-119.996094-120s53.722656-120 119.996094-120c66.277344 0 120 53.726562 120 120zm0 0" fill="#a6f074"/><path d="m305 200v-73.5h-35.003906l60-66.5 60 66.5h-35v73.5zm24.996094 0" fill="#fff"/></g><path d="m205.886719 492h-.269531c-5.523438 0-10 4.476562-10 10s4.476562 10 10 10h.269531c5.523437 0 10-4.476562 10-10s-4.476563-10-10-10zm0 0"/><path d="m204.3125 381.265625c10.394531-13.867187 16.554688-31.078125 16.554688-49.699219v-36.402344c0-.035156 0-.070312 0-.101562v-.019531c0-45.789063-37.25-83.042969-83.042969-83.042969-5.523438 0-10 4.476562-10 10s4.476562 10 10 10c32.226562 0 58.867187 24.3125 62.585937 55.554688-11.648437 1.636718-26.8125-2.808594-36.898437-14.738282-3.367188-3.980468-9.226563-4.707031-13.460938-1.667968-18.351562 13.15625-52.144531 27.730468-74.984375 18.027343.914063-9.742187 4.09375-19.148437 9.34375-27.496093 2.941406-4.675782 1.535156-10.851563-3.140625-13.789063-4.675781-2.941406-10.847656-1.535156-13.789062 3.140625-8.308594 13.207031-12.699219 28.425781-12.699219 44.011719v36.523437c0 18.625 6.164062 35.832032 16.554688 49.699219-43.734376 24.070313-71.335938 70.082031-71.335938 120.734375 0 5.523438 4.476562 10 10 10h155.652344c5.523437 0 10-4.476562 10-10s-4.476563-10-10-10h-17.828125v-66.832031l34.09375 26.753906c3.007812 2.359375 7.101562 2.796875 10.546875 1.125 3.441406-1.675781 5.625-5.167969 5.625-8.996094v-43.320312c32.570312 19.367187 53.929687 53.285156 57.140625 91.269531h-20.613281c-5.523438 0-10 4.476562-10 10s4.476562 10 10 10h31.035156c5.523437 0 10-4.476562 10-10 0-50.652344-27.601563-96.664062-71.339844-120.734375zm-49.742188-89.109375c12.910157 11.285156 30.339844 16.996094 46.296876 15.484375v23.925781c0 17.625-7.277344 33.574219-18.976563 45.027344-.035156.027344-1.226563 1.15625-1.304687 1.242188-11.246094 10.402343-26.273438 16.773437-42.761719 16.773437s-31.511719-6.371094-42.757813-16.769531c-.078125-.089844-1.277344-1.21875-1.308594-1.246094-11.699218-11.453125-18.976562-27.402344-18.976562-45.027344v-21.339844c5.609375 1.511719 11.402344 2.1875 17.246094 2.1875 22.875 0 46.46875-10.261718 62.542968-20.257812zm-57.007812 112.003906c5.023438 2.800782 10.363281 5.097656 15.953125 6.8125l-15.953125 12.523438zm-77.140625 87.839844c3.210937-37.980469 24.570313-71.902344 57.140625-91.269531v43.324219c0 3.824218 2.183594 7.316406 5.625 8.992187 1.386719.675781 2.882812 1.007813 4.371094 1.007813 2.199218 0 4.378906-.726563 6.175781-2.132813l34.089844-26.753906v66.832031zm141.710937-81.027344c5.59375-1.714844 10.933594-4.011718 15.957032-6.8125v19.335938zm0 0"/><path d="m95.601562 245.539062c2.015626 0 4.054688-.609374 5.816407-1.875l.261719-.183593c4.519531-3.175781 5.605468-9.414063 2.429687-13.929688-3.175781-4.519531-9.414063-5.605469-13.933594-2.429687l-.40625.289062c-4.492187 3.21875-5.519531 9.464844-2.304687 13.953125 1.953125 2.726563 5.023437 4.175781 8.136718 4.175781zm0 0"/><path d="m112.394531 346.554688h.234375c5.523438 0 10-4.476563 10-10 0-5.523438-4.476562-10-10-10h-.234375c-5.523437 0-10 4.476562-10 10 0 5.523437 4.476563 10 10 10zm0 0"/><path d="m163.019531 346.554688h.234375c5.523438 0 10-4.476563 10-10 0-5.523438-4.476562-10-10-10h-.234375c-5.523437 0-10 4.476562-10 10 0 5.523437 4.476563 10 10 10zm0 0"/><path d="m329.996094 0c-71.679688 0-129.996094 58.316406-129.996094 130 0 71.679688 58.316406 130 129.996094 130 71.683594 0 130-58.320312 130-130 0-71.683594-58.316406-130-130-130zm0 240c-60.652344 0-109.996094-49.347656-109.996094-110s49.34375-110 109.996094-110c60.65625 0 110 49.347656 110 110s-49.34375 110-110 110zm0 0"/><path d="m337.421875 53.300781c-1.894531-2.101562-4.59375-3.300781-7.425781-3.300781-2.828125 0-5.527344 1.199219-7.421875 3.300781l-60 66.5c-2.648438 2.933594-3.316407 7.148438-1.714844 10.761719 1.605469 3.609375 5.1875 5.9375 9.140625 5.9375h25v63.5c0 5.523438 4.476562 10 10 10h49.996094c5.523437 0 10-4.476562 10-10v-63.5h25.003906c3.949219 0 7.53125-2.328125 9.136719-5.941406 1.605469-3.609375.933593-7.824219-1.710938-10.761719zm17.574219 63.199219c-5.523438 0-10 4.476562-10 10v63.5h-29.996094v-63.5c0-5.523438-4.476562-10-10-10h-12.511719l37.507813-41.574219 37.507812 41.574219zm0 0"/></svg>