<svg height="512pt" viewBox="-26 0 512 512.002" width="512pt" xmlns="http://www.w3.org/2000/svg"><g fill-rule="evenodd"><path d="m450 208.992188-93.511719-93.511719-36.1875 36.1875c-54.175781-17.527344-103.582031-6.75-162.097656 8.226562-8.011719 2.050781-14.082031 7.933594-16.75 15.191407-1.640625 4.449218-1.996094 9.414062-.738281 14.328124 3.308594 12.925782 16.1875 18.085938 29.515625 17.488282l47.738281-2.136719 137.070312 137.070313 37.539063-37.539063c15.070313-15.070313 20.976563-35.96875 17.726563-55.609375zm0 0" fill="#ffd4bd"/><path d="m355.039062 341.835938-137.070312-137.070313-47.738281 2.136719c-13.328125.597656-26.207031-4.5625-29.515625-17.488282-1.257813-4.914062-.902344-9.882812.738281-14.332031-.582031.171875-1.167969.347657-1.757813.539063l-36.1875-36.1875-93.511718 93.511718 39.695312 39.695313c-3.25 19.640625 2.65625 40.539063 17.726563 55.609375l13.386719 13.429688 10.964843-10.964844c9.433594-9.433594 24.875-9.433594 34.308594 0 9.4375 9.4375 9.4375 24.875 0 34.3125l-2.210937 2.210937c9.433593-9.433593 24.875-9.433593 34.308593 0 9.433594 9.4375 9.433594 24.875 0 34.3125l-.632812.632813c9.4375-9.4375 24.875-9.4375 34.3125 0 9.433593 9.433594 9.433593 24.871094 0 34.308594l-6.640625 6.640624c9.433594-9.4375 24.875-9.4375 34.308594 0 9.4375 9.433594 9.4375 24.875 0 34.308594l-1.675782 1.675782 18.011719 18.015624c7.617187 7.617188 21.574219 6.132813 31.007813-3.304687 9.433593-9.433594 10.921874-23.386719 3.300781-31.007813 7.621093 7.621094 21.574219 6.136719 31.007812-3.300781 9.4375-9.433593 10.921875-23.386719 3.300781-31.007812 7.621094 7.621093 21.574219 6.132812 31.011719-3.300781 9.433594-9.433594 10.917969-23.390626 3.300781-31.007813 7.617188 7.621094 21.574219 6.132813 31.007813-3.300781 9.433594-9.4375 10.921875-23.386719 3.300781-31.007813zm0 0" fill="#ffbe9e"/><path d="m126.078125 365.027344c9.433594-9.4375 9.433594-24.875 0-34.3125-9.433594-9.433594-24.875-9.433594-34.3125 0l-10.960937 10.964844-13.539063 13.539062c-9.433594 9.433594-9.433594 24.875 0 34.308594 9.414063 9.414062 24.800781 9.433594 34.242187.070312.023438-.023437.046876-.046875.070313-.070312zm0 0" fill="#ffd4bd"/><path d="m158.175781 367.238281c-9.4375-9.433593-24.875-9.433593-34.3125 0l-22.285156 22.289063-.082031.082031c-.277344.28125-.546875.566406-.808594.859375-8.535156 9.492188-8.238281 24.242188.890625 33.367188 9.421875 9.421874 24.828125 9.4375 34.269531.042968.003906-.003906.007813-.007812.011719-.015625l.027344-.027343 21.65625-21.652344.632812-.632813c9.433594-9.4375 9.433594-24.875 0-34.3125zm0 0" fill="#ffd4bd"/><path d="m135.859375 423.867188-.011719.011718zm55.992187-21.683594c-9.433593-9.4375-24.875-9.4375-34.308593 0l-21.65625 21.652344-.027344.03125-.015625.011718-.273438.277344c-.375.375-.738281.765625-1.085937 1.160156-8.332031 9.5-7.972656 24.089844 1.085937 33.148438 9.410157 9.410156 24.785157 9.433594 34.230469.078125l.082031-.078125 3.160157-3.160156 12.167969-12.171876 6.640624-6.640624c9.4375-9.433594 9.4375-24.875 0-34.308594zm0 0" fill="#ffd4bd"/><path d="m185.214844 443.132812-12.171875 12.167969c-9.433594 9.4375-9.433594 24.875 0 34.3125 9.4375 9.433594 24.875 9.433594 34.3125 0l10.492187-10.492187 1.675782-1.679688c9.433593-9.433594 9.433593-24.875 0-34.308594-9.4375-9.4375-24.875-9.4375-34.308594 0zm0 0" fill="#ffd4bd"/><path d="m229.996094 106.363281 43.664062-43.660156c12.054688-12.058594 12.054688-31.605469 0-43.660156-12.058594-12.058594-31.605468-12.058594-43.664062 0-12.054688-12.058594-31.601563-12.058594-43.660156 0-12.054688 12.054687-12.054688 31.601562 0 43.660156zm0 0" fill="#d675a7"/></g><path d="m457.070312 201.921875c-3.90625-3.90625-10.238281-3.90625-14.144531 0l-39.691406 39.695313c-2.28125 2.277343-3.324219 5.519531-2.796875 8.703124 2.84375 17.179688-2.738281 34.714844-14.929688 46.90625l-30.46875 30.46875-12.929687-12.933593c-3.90625-3.902344-10.238281-3.902344-14.144531 0-3.90625 3.90625-3.90625 10.238281 0 14.144531l19.914062 19.914062c.03125.03125.058594.058594.085938.085938.03125.03125.058594.058594.085937.085938l17.972657 17.972656c3.210937 3.207031 2.644531 10.925781-3.300782 16.867187-5.941406 5.941407-13.660156 6.511719-16.863281 3.300781-3.90625-3.902343-10.238281-3.902343-14.144531 0-1.953125 1.953126-2.929688 4.511719-2.929688 7.070313 0 2.5625.976563 5.121094 2.929688 7.074219 3.207031 3.207031 2.640625 10.921875-3.300782 16.863281-5.945312 5.941406-13.660156 6.507813-16.867187 3.300781-3.90625-3.902344-10.234375-3.902344-14.140625 0-1.953125 1.953125-2.929688 4.511719-2.929688 7.074219 0 2.558594.976563 5.117187 2.929688 7.070313 3.207031 3.207031 2.640625 10.921874-3.304688 16.863281-2.910156 2.910156-6.617187 4.796875-10.171874 5.175781-1.628907.175781-4.660157.160156-6.691407-1.871094-3.90625-3.90625-10.234375-3.90625-14.144531 0-1.953125 1.953125-2.929688 4.511719-2.929688 7.070313 0 2.558593.976563 5.117187 2.929688 7.070312 3.207031 3.207031 2.640625 10.921875-3.300781 16.867188-2.910157 2.910156-6.617188 4.792969-10.171875 5.171875-1.628906.175781-4.660156.164062-6.695313-1.871094l-11.550781-11.550781c3.394531-5.398438 5.222656-11.664063 5.222656-18.222657 0-9.167968-3.554687-17.773437-10.003906-24.226562-5.066406-5.066406-11.460938-8.34375-18.414062-9.519531 2.347656-10.988281-.738282-22.914063-9.257813-31.429688-6.542969-6.542969-15.089844-9.878906-23.679687-10.015625.003906-.230468.007812-.464844.007812-.699218 0-9.171876-3.554688-17.777344-10.007812-24.230469-6.152344-6.152344-14.082032-9.472657-22.15625-9.957031.648437-9.535157-2.664063-19.292969-9.9375-26.566407-13.359376-13.355469-35.09375-13.355469-48.453126 0l-3.878906 3.882813-6.332031-6.351563c-12.191406-12.1875-17.769531-29.722656-14.929687-46.902343.015624-.09375.019531-.1875.03125-.28125.027343-.191407.050781-.378907.066406-.570313.011718-.160156.019531-.316406.023437-.476563.003907-.160156.007813-.320312.007813-.484374-.003906-.175782-.015625-.351563-.027344-.527344-.007812-.144532-.019531-.285156-.039062-.429688-.019532-.179687-.046876-.355468-.074219-.535156-.023438-.144531-.050781-.289062-.082031-.433594-.035157-.164062-.078126-.328125-.121094-.492187-.042969-.15625-.085938-.308594-.136719-.460938-.046875-.148437-.097656-.292969-.148437-.433593-.0625-.167969-.128907-.332032-.199219-.496094-.054688-.125-.113281-.25-.175781-.375-.082032-.167969-.167969-.335938-.257813-.5-.066406-.121094-.136719-.238282-.210937-.355469-.09375-.15625-.191407-.308594-.296876-.460937-.085937-.125-.179687-.25-.273437-.371094-.101563-.128906-.199219-.261719-.308594-.390625-.117187-.140625-.242187-.273438-.367187-.40625-.070313-.074219-.128906-.152344-.203125-.222657l-11.40625-11.40625c-3.90625-3.90625-10.238281-3.90625-14.144531 0-3.90625 3.902344-3.902344 10.234376 0 14.140626l7.945312 7.945312c-2.03125 21.816406 5.6875 43.570312 21.175781 59.0625l6.339844 6.355469-6.476563 6.480469c-13.359374 13.355468-13.359374 35.09375 0 48.453124 6.679688 6.675782 15.453126 10.015626 24.226563 10.015626h.046875c-.015625 8.808593 3.347656 17.605468 10.035156 24.292968 6.617188 6.617188 15.292969 9.953125 23.992188 10.015625-.097656 8.929688 3.261718 17.871094 10 24.609375 7.527344 7.527344 17.738281 10.808594 27.589844 9.851563.671874 8.0625 4.125 15.539062 9.882812 21.296875 6.679688 6.679687 15.453125 10.019531 24.226562 10.019531 8.773438 0 17.546876-3.339844 24.226563-10.019531l3.421875-3.417969 10.941406 10.9375c5.039063 5.042969 12.046875 7.800781 19.601563 7.800781 1.105469 0 2.226562-.0625 3.351562-.179687 8.140625-.867188 16.023438-4.746094 22.195313-10.921875 6.691406-6.6875 10.398437-15.101563 10.992187-23.289063.371094-.027343.746094-.058593 1.121094-.101562 8.140625-.867188 16.023437-4.742188 22.199219-10.917969 6.695312-6.695312 10.40625-15.125 10.988281-23.320312 8.195313-.582032 16.625-4.292969 23.320313-10.988282 6.695312-6.699218 10.40625-15.125 10.992187-23.320312 8.191406-.582032 16.621094-4.296875 23.316406-10.988282 13.359375-13.359374 14.839844-33.617187 3.300781-45.152343l-10.984374-10.988281 30.46875-30.46875c15.503906-15.5 23.226562-37.261719 21.195312-59.078126l36.222656-36.222656c3.910156-3.90625 3.910156-10.238281.003906-14.144531zm-362.5625 180.535156c-.007812.007813-.015624.015625-.023437.019531-5.5625 5.539063-14.59375 5.53125-20.144531-.019531-5.5625-5.5625-5.5625-14.609375 0-20.167969l24.5-24.5c2.78125-2.78125 6.433594-4.171874 10.085937-4.171874 3.648438 0 7.300781 1.390624 10.082031 4.171874 5.5625 5.558594 5.5625 14.609376 0 20.167969l-24.476562 24.476563c-.007812.007812-.015625.015625-.023438.023437zm34.292969 34.324219c-5.5625 5.542969-14.601562 5.535156-20.152343-.015625-5.363282-5.359375-5.59375-13.976563-.53125-19.605469.164062-.183594.332031-.363281.507812-.539062l22.308594-22.308594c5.5625-5.5625 14.609375-5.5625 20.167968 0 2.675782 2.671875 4.148438 6.253906 4.148438 10.082031s-1.472656 7.410157-4.148438 10.082031l-22.296874 22.296876c0 .003906-.003907.007812-.003907.007812zm33.960938 34.660156c-5.5625 5.507813-14.585938 5.484375-20.121094-.046875-5.292969-5.296875-5.574219-13.855469-.636719-19.488281.207032-.230469.417969-.460938.636719-.679688l.316406-.316406c.019531-.019531.039063-.039062.058594-.058594l21.597656-21.597656c5.558594-5.5625 14.605469-5.5625 20.164063 0 5.5625 5.558594 5.5625 14.609375 0 20.167969l-6.636719 6.640625-12.171875 12.167969-3.121094 3.125c-.027344.027343-.058594.054687-.085937.085937zm17.351562 31.097656c-5.558593-5.558593-5.558593-14.605468 0-20.164062l12.171875-12.171875c2.675782-2.675781 6.253906-4.144531 10.082032-4.144531 3.828124 0 7.410156 1.472656 10.082031 4.144531 2.675781 2.675781 4.148437 6.257813 4.148437 10.085937 0 3.828126-1.472656 7.410157-4.148437 10.082032l-12.167969 12.167968c-5.558594 5.5625-14.605469 5.5625-20.167969 0zm0 0"/><path d="m130.101562 180.171875c-.371093 3.882813-.070312 7.839844.921876 11.722656 4.183593 16.328125 19.367187 25.90625 39.65625 24.996094l43.335937-1.9375 57.382813 57.382813c1.953124 1.953124 4.511718 2.929687 7.070312 2.929687s5.117188-.976563 7.070312-2.929687c3.90625-3.902344 3.90625-10.234376 0-14.140626l-60.5-60.5c-1.984374-1.984374-4.710937-3.035156-7.515624-2.917968l-47.742188 2.136718c-3.90625.171876-16.835938-.03125-19.382812-9.980468-.9375-3.664063-.378907-7.496094 1.574218-10.789063 1.949219-3.292969 5.042969-5.625 8.707032-6.558593 59.664062-15.273438 105.816406-24.8125 156.539062-8.402344 3.578125 1.15625 7.496094.210937 10.152344-2.445313l36.183594-36.1875c3.90625-3.90625 3.90625-10.238281 0-14.140625-3.902344-3.90625-10.234376-3.90625-14.140626 0l-31.9375 31.9375c-53.445312-15.46875-103-5.175781-161.753906 9.859375-6.648437 1.703125-12.503906 5.285157-16.988281 10.3125l-28.15625-28.15625c-3.902344-3.90625-10.234375-3.90625-14.140625 0s-3.90625 10.238281 0 14.144531zm0 0"/><path d="m222.925781 113.433594c1.953125 1.953125 4.511719 2.929687 7.074219 2.929687 2.558594 0 5.117188-.976562 7.070312-2.929687l43.660157-43.660156c7.71875-7.71875 11.972656-17.984376 11.972656-28.898438 0-10.917969-4.253906-21.183594-11.972656-28.902344-7.71875-7.722656-17.984375-11.972656-28.902344-11.972656-7.847656 0-15.359375 2.199219-21.832031 6.300781-6.46875-4.105469-13.980469-6.300781-21.828125-6.300781-10.917969 0-21.183594 4.25-28.902344 11.972656-15.9375 15.933594-15.9375 41.867188 0 57.800782zm-29.519531-87.320313c4.070312-4.070312 9.414062-6.105469 14.761719-6.105469 5.34375 0 10.6875 2.035157 14.757812 6.105469 1.875 1.875 4.421875 2.929688 7.074219 2.929688 2.648438 0 5.195312-1.054688 7.070312-2.929688 3.941407-3.941406 9.183594-6.113281 14.757813-6.113281s10.816406 2.171875 14.761719 6.113281c8.136718 8.140625 8.136718 21.378907 0 29.519531l-36.589844 36.589844-36.589844-36.589844c-8.140625-8.140624-8.140625-21.378906-.003906-29.519531zm0 0"/><path d="m300.027344 286.152344c-4.085938 3.714844-4.386719 10.042968-.671875 14.128906 1.976562 2.167969 4.683593 3.269531 7.402343 3.269531 2.402344 0 4.808594-.855469 6.722657-2.597656 4.089843-3.714844 4.390625-10.042969.675781-14.128906l-.007812-.003907c-3.710938-4.085937-10.035157-4.382812-14.121094-.667968zm0 0"/><path d="m17.070312 225.875c-3.90625-3.90625-10.234374-3.902344-14.140624.003906-3.90625 3.90625-3.902344 10.238282 0 14.144532 1.953124 1.953124 4.511718 2.929687 7.070312 2.929687 2.5625 0 5.121094-.976563 7.074219-2.929687 3.902343-3.90625 3.902343-10.238282 0-14.144532zm0 0"/></svg>