<svg id="Layer_35" enable-background="new 0 0 64 64" height="512" viewBox="0 0 64 64" width="512" xmlns="http://www.w3.org/2000/svg"><path d="m52 21h10v38h-33l1.8-2.4c.78-1.04 1.2-2.3 1.2-3.6v-13c0-.55-.22-1.05-.59-1.41-.36-.37-.86-.59-1.41-.59-1.1 0-2 .9-2 2v-2-27h24z" fill="#e6e9ed"/><path d="m62 21h-10v-10z" fill="#ff826e"/><g fill="#b4dd7f"><path d="m54 43h4v12h-4z"/><path d="m46 35h4v20h-4z"/><path d="m38 39h4v16h-4z"/></g><path d="m40 23 5.66 5.66c-1.45 1.44-3.45 2.34-5.66 2.34-4.42 0-8-3.58-8-8z" fill="#4fc1e9"/><path d="m40 15c4.42 0 8 3.58 8 8 0 2.21-.9 4.21-2.34 5.66l-5.66-5.66z" fill="#fcd770"/><path d="m40 15v8h-8c0-4.42 3.58-8 8-8z" fill="#ff826e"/><path d="m24 2h-18c-2.21 0-4 1.79-4 4v32c0 2.21 1.79 4 4 4h22v-31-5c0-2.21-1.79-4-4-4z" fill="#969faa"/><path d="m6 20h18v18h-18z" fill="#fcd770"/><path d="m28 38v2c0-1.1.9-2 2-2 .55 0 1.05.22 1.41.59.37.36.59.86.59 1.41v13c0 1.3-.42 2.56-1.2 3.6l-1.8 2.4v3h-16v-3l-2.54-2.54c-.95-.95-1.55-2.18-1.72-3.5l-.58-4.68c-.11-.84-.4-1.65-.87-2.35l-1.03-1.54c-.17-.26-.26-.55-.26-.85v-.01c0-.84.69-1.53 1.54-1.53 1.3 0 2.5.46 3.44 1.23.95.78 1.64 1.87 1.89 3.15.13.62 1.13 1.62 1.13 1.62h1l.58-1.21c.28-.56.42-1.17.42-1.79v-3-4-6-6c0-1.1.9-2 2-2 .55 0 1.05.22 1.41.59.37.36.59.86.59 1.41v10c0-1.1.9-2 2-2 .55 0 1.05.22 1.41.59.37.36.59.86.59 1.41v2c0-1.1.9-2 2-2 .55 0 1.05.22 1.41.59.37.36.59.86.59 1.41z" fill="#f0d0b4"/><path d="m6 6h18v10h-18z" fill="#69d6f4"/><path d="m25 5h-20v12h20zm-2 10h-16v-8h16z"/><path d="m63 20.586-10.586-10.586h-23.414v-4c0-2.757-2.243-5-5-5h-18c-2.757 0-5 2.243-5 5v32c0 2.445 1.767 4.477 4.088 4.908-.052.202-.088.409-.088.627 0 .502.147.988.426 1.406l1.029 1.543c.381.571.627 1.234.713 1.915l.585 4.681c.192 1.537.901 2.986 1.996 4.082l2.251 2.252v3.586h18v-3h33zm-10-7.172 6.586 6.586h-6.586zm-50 24.586v-32c0-1.654 1.346-3 3-3h18c1.654 0 3 1.346 3 3v29.184c-.314-.112-.648-.184-1-.184s-.686.072-1 .184v-16.184h-20v20h10v2h-9c-1.654 0-3-1.346-3-3zm12-1h-2v-4h2zm-8-10h4v4h-4zm0-2v-4h4v4zm0 8h4v4h-4zm8-2h-2v-4h2zm.184-6h-2.184v-4h4v2.184c-.847.302-1.514.969-1.816 1.816zm7.816 0h-2.184c-.302-.847-.969-1.514-1.816-1.816v-2.184h4zm-2 2h2v6.184c-.314-.112-.648-.184-1-.184s-.686.072-1 .184zm-6 16v2c0 .463-.109.927-.325 1.358l-.283.593c-.269-.314-.498-.638-.537-.771-.248-1.235-.857-2.318-1.686-3.18zm13 18h-14v-2.414l-2.837-2.837c-.782-.782-1.289-1.818-1.426-2.916l-.585-4.681c-.124-.988-.481-1.948-1.033-2.776l-1.029-1.544c-.059-.088-.09-.191-.09-.297 0-.295.24-.535.535-.535 2.111 0 3.944 1.503 4.359 3.573.167.83 1.033 1.769 1.398 2.134l.294.293h2.045l.841-1.764c.345-.691.528-1.464.528-2.236v-19c0-.551.449-1 1-1s1 .449 1 1v10 6h2v-6c0-.551.449-1 1-1s1 .449 1 1v2 4h2v-4c0-.551.449-1 1-1s1 .449 1 1v2 2h2v-2c0-.551.449-1 1-1s1 .449 1 1v13c0 1.075-.355 2.141-1 3l-2 2.667zm3-3 .6-.8c.903-1.204 1.4-2.695 1.4-4.2v-13c0-1.654-1.346-3-3-3-.352 0-.686.072-1 .184v-25.184h22v10h10v36z"/><path d="m49 23c0-4.962-4.038-9-9-9s-9 4.038-9 9 4.038 9 9 9 9-4.038 9-9zm-2 0c0 1.57-.526 3.015-1.402 4.184l-4.598-4.598v-6.506c3.387.488 6 3.401 6 6.92zm-8-6.92v5.92h-5.92c.44-3.059 2.861-5.48 5.92-5.92zm-5.92 7.92h6.506l4.598 4.598c-1.169.876-2.614 1.402-4.184 1.402-3.519 0-6.432-2.613-6.92-6z"/><path d="m53 56h6v-14h-6zm2-12h2v10h-2z"/><path d="m45 56h6v-22h-6zm2-20h2v18h-2z"/><path d="m37 56h6v-18h-6zm2-16h2v14h-2z"/><path d="m57 24h2v2h-2z"/><path d="m57 28h2v2h-2z"/><path d="m57 32h2v2h-2z"/></svg>