<?xml version="1.0" encoding="iso-8859-1"?>
<!-- Generator: Adobe Illustrator 19.0.0, SVG Export Plug-In . SVG Version: 6.00 Build 0)  -->
<svg version="1.1" id="Capa_1" xmlns="http://www.w3.org/2000/svg" xmlns:xlink="http://www.w3.org/1999/xlink" x="0px" y="0px"
	 viewBox="0 0 501.208 501.208" style="enable-background:new 0 0 501.208 501.208;" xml:space="preserve">
<path style="fill:#AFB8C9;" d="M394.608,418.604l51.304,10.264c17.624,3.528,31.8,16.6,36.736,33.88l7.96,27.856h-240l7.96-27.856
	c4.936-17.28,19.112-30.36,36.736-33.88l51.304-10.264H394.608z"/>
<path style="fill:#8C95A4;" d="M457.008,490.604h33.6l-7.96-27.856c-4.936-17.28-19.112-30.352-36.736-33.88l-51.304-10.264
	l50.848,36.32c3.304,2.36,5.592,5.896,6.392,9.88L457.008,490.604z"/>
<path style="fill:#92E0C0;" d="M154.608,418.604l51.304,10.264c17.624,3.528,31.8,16.6,36.736,33.88l7.96,27.856h-240l7.96-27.856
	c4.936-17.28,19.112-30.36,36.736-33.88l51.304-10.264H154.608z"/>
<path style="fill:#48C397;" d="M217.008,490.604h33.6l-7.96-27.856c-4.936-17.28-19.112-30.352-36.736-33.88l-51.304-10.264
	l50.848,36.32c3.304,2.36,5.592,5.896,6.392,9.88L217.008,490.604z"/>
<path style="fill:#ECECEC;" d="M274.608,210.604l51.304,10.264c17.624,3.528,31.8,16.6,36.736,33.88l7.96,27.856h-240l7.96-27.856
	c4.936-17.28,19.112-30.36,36.736-33.88l51.304-10.264H274.608z"/>
<path style="fill:#B6C1CE;" d="M337.008,282.604h33.6l-7.96-27.856c-4.936-17.28-19.112-30.352-36.736-33.88l-51.304-10.264
	l50.848,36.32c3.304,2.36,5.592,5.896,6.392,9.88L337.008,282.604z"/>
<g>
	<path style="fill:#F9E0A6;" d="M106.608,402.604v16c0,13.256,10.744,24,24,24l0,0c13.256,0,24-10.744,24-24v-16H106.608z"/>
	<path style="fill:#F9E0A6;" d="M226.608,194.604v16c0,13.256,10.744,24,24,24l0,0c13.256,0,24-10.744,24-24v-16H226.608z"/>
	<polygon style="fill:#F9E0A6;" points="346.608,418.604 370.608,458.604 394.608,418.604 394.608,394.604 346.608,394.604 	"/>
</g>
<g>
	<circle style="fill:#FCD770;" cx="42.608" cy="42.604" r="16"/>
	<circle style="fill:#FCD770;" cx="90.608" cy="154.604" r="16"/>
	<circle style="fill:#FCD770;" cx="410.608" cy="42.604" r="16"/>
	<circle style="fill:#FCD770;" cx="458.608" cy="154.604" r="16"/>
</g>
<circle style="fill:#FEA82F;" cx="370.608" cy="314.604" r="96"/>
<path style="fill:#FF8031;" d="M370.608,394.604c-50.32,0-91.52-38.736-95.6-88c-0.216,2.648-0.4,5.296-0.4,8
	c0,53.016,42.984,96,96,96s96-42.984,96-96c0-2.704-0.184-5.352-0.4-8C462.128,355.868,420.928,394.604,370.608,394.604z"/>
<circle style="fill:#FEA82F;" cx="130.608" cy="314.604" r="96"/>
<path style="fill:#FF8031;" d="M130.608,394.604c-50.32,0-91.52-38.736-95.6-88c-0.216,2.648-0.4,5.296-0.4,8
	c0,53.016,42.984,96,96,96s96-42.984,96-96c0-2.704-0.184-5.352-0.4-8C222.128,355.868,180.928,394.604,130.608,394.604z"/>
<circle style="fill:#FEA82F;" cx="250.608" cy="106.604" r="96"/>
<path style="fill:#FF8031;" d="M250.608,186.604c-50.32,0-91.52-38.736-95.6-88c-0.216,2.648-0.4,5.296-0.4,8
	c0,53.016,42.984,96,96,96s96-42.984,96-96c0-2.704-0.184-5.352-0.4-8C342.128,147.868,300.928,186.604,250.608,186.604z"/>
<path d="M490.336,460.548c-5.784-20.256-22.208-35.408-42.856-39.528l-42.176-8.432c12.088-4.28,23.392-10.728,33.24-19.232
	l-10.456-12.112c-15.96,13.776-36.368,21.36-57.48,21.36c-48.52,0-88-39.48-88-88s39.48-88,88-88s88,39.48,88,88
	c0,20.28-6.704,39.344-19.4,55.128l12.472,10.032c14.784-18.392,22.928-41.528,22.928-65.16c0-57.344-46.656-104-104-104
	c-11.584,0-22.688,1.984-33.104,5.496c-3.232-1.312-6.576-2.392-10.024-3.08l-42.176-8.432c12.088-4.28,23.392-10.728,33.24-19.232
	l-10.456-12.112c-15.96,13.776-36.368,21.36-57.48,21.36c-48.52,0-88-39.48-88-88s39.48-88,88-88s88,39.48,88,88
	c0,20.28-6.704,39.344-19.4,55.128l12.472,10.032c14.784-18.392,22.928-41.528,22.928-65.16c0-57.344-46.656-104-104-104
	s-104,46.656-104,104c0,45.208,29.04,83.656,69.408,97.96l-42.28,8.456c-3.448,0.688-6.792,1.76-10.032,3.08
	c-10.408-3.512-21.512-5.496-33.096-5.496c-57.344,0-104,46.656-104,104c0,45.208,29.04,83.656,69.408,97.96l-42.272,8.456
	c-20.656,4.128-37.08,19.272-42.864,39.528L0,498.604h240h21.208h240L490.336,460.548z M382.016,417.9l-11.408,22.816
	l-11.384-22.768c3.744,0.408,7.536,0.656,11.384,0.656C374.44,418.604,378.24,418.324,382.016,417.9z M266.608,209.284v1.32
	c0,8.824-7.176,16-16,16s-16-7.176-16-16v-1.36c5.232,0.816,10.544,1.36,16,1.36C256,210.604,261.336,210.108,266.608,209.284z
	 M220.192,220.044c4.056,13.024,16.08,22.56,30.416,22.56s26.36-9.536,30.416-22.56l34.016,6.8
	c-17.92,11.384-32.168,28.024-40.432,47.824v-0.064h-48v0.064c-8.264-19.792-22.512-36.432-40.432-47.824L220.192,220.044z
	 M114.608,417.244c5.232,0.816,10.544,1.36,16,1.36c5.392,0,10.728-0.496,16-1.32v1.32c0,8.824-7.176,16-16,16s-16-7.176-16-16
	V417.244z M200.856,482.604l-6.488-25.936l-15.52,3.872l5.512,22.064H76.856l5.512-22.064l-15.52-3.872l-6.488,25.936H21.216
	l5.048-17.664c4.136-14.472,15.864-25.28,30.616-28.232l43.312-8.664c4.056,13.024,16.08,22.56,30.416,22.56
	s26.36-9.536,30.416-22.56l43.32,8.664c14.752,2.952,26.48,13.768,30.616,28.232l5.04,17.664H200.856z M250.88,460.548l-0.272,0.944
	l-0.272-0.944c-5.784-20.256-22.208-35.408-42.856-39.528l-42.176-8.432c12.088-4.28,23.392-10.728,33.24-19.232l-10.456-12.112
	c-15.96,13.776-36.368,21.36-57.48,21.36c-48.52,0-88-39.48-88-88s39.48-88,88-88s88,39.48,88,88c0,20.28-6.704,39.344-19.4,55.128
	l12.472,10.032c14.784-18.392,22.928-41.528,22.928-65.16c0-8.272-1.072-16.28-2.904-24h37.816c-1.84,7.72-2.912,15.728-2.912,24
	c0,45.208,29.04,83.656,69.408,97.96l-42.272,8.456C273.088,425.14,256.664,440.292,250.88,460.548z M440.856,482.604l-6.488-25.936
	l-15.52,3.872l5.512,22.064H316.856l5.512-22.064l-15.52-3.872l-6.488,25.936h-39.152l5.048-17.664
	c4.136-14.472,15.864-25.28,30.616-28.232l48.944-9.784l24.792,49.568l24.784-49.576l48.944,9.784
	c14.752,2.952,26.48,13.768,30.616,28.232L480,482.604H440.856z"/>
<path d="M34.608,65.132v73.472h16V65.132c9.288-3.312,16-12.112,16-22.528c0-13.232-10.768-24-24-24s-24,10.768-24,24
	C18.608,53.02,25.32,61.82,34.608,65.132z M42.608,34.604c4.408,0,8,3.584,8,8s-3.592,8-8,8c-4.408,0-8-3.584-8-8
	S38.2,34.604,42.608,34.604z"/>
<path d="M66.608,154.604c0,13.232,10.768,24,24,24s24-10.768,24-24c0-10.416-6.712-19.216-16-22.528V58.604h-16v73.472
	C73.32,135.388,66.608,144.188,66.608,154.604z M90.608,146.604c4.408,0,8,3.584,8,8s-3.592,8-8,8s-8-3.584-8-8
	S86.2,146.604,90.608,146.604z"/>
<path d="M402.608,65.132v73.472h16V65.132c9.288-3.312,16-12.112,16-22.528c0-13.232-10.768-24-24-24s-24,10.768-24,24
	C386.608,53.02,393.32,61.82,402.608,65.132z M410.608,34.604c4.408,0,8,3.584,8,8s-3.592,8-8,8s-8-3.584-8-8
	S406.2,34.604,410.608,34.604z"/>
<path d="M434.608,154.604c0,13.232,10.768,24,24,24s24-10.768,24-24c0-10.416-6.712-19.216-16-22.528V58.604h-16v73.472
	C441.32,135.388,434.608,144.188,434.608,154.604z M458.608,146.604c4.408,0,8,3.584,8,8s-3.592,8-8,8s-8-3.584-8-8
	S454.2,146.604,458.608,146.604z"/>
<path d="M370.608,274.604c8.824,0,16,7.176,16,16h16c0-14.872-10.24-27.288-24-30.864v-17.136h-16v17.136
	c-13.76,3.576-24,15.992-24,30.864c0,17.648,14.352,32,32,32c8.824,0,16,7.176,16,16s-7.176,16-16,16s-16-7.176-16-16h-16
	c0,14.872,10.24,27.288,24,30.864v17.136h16v-17.136c13.76-3.576,24-15.992,24-30.864c0-17.648-14.352-32-32-32
	c-8.824,0-16-7.176-16-16S361.784,274.604,370.608,274.604z"/>
<rect x="426.608" y="306.604" width="16" height="16"/>
<rect x="298.608" y="306.604" width="16" height="16"/>
<path d="M130.608,274.604c8.824,0,16,7.176,16,16h16c0-14.872-10.24-27.288-24-30.864v-17.136h-16v17.136
	c-13.76,3.576-24,15.992-24,30.864c0,17.648,14.352,32,32,32c8.824,0,16,7.176,16,16s-7.176,16-16,16s-16-7.176-16-16h-16
	c0,14.872,10.24,27.288,24,30.864v17.136h16v-17.136c13.76-3.576,24-15.992,24-30.864c0-17.648-14.352-32-32-32
	c-8.824,0-16-7.176-16-16S121.784,274.604,130.608,274.604z"/>
<rect x="186.608" y="306.604" width="16" height="16"/>
<rect x="58.608" y="306.604" width="16" height="16"/>
<path d="M250.608,66.604c8.824,0,16,7.176,16,16h16c0-14.872-10.24-27.288-24-30.864V34.604h-16V51.74
	c-13.76,3.576-24,15.992-24,30.864c0,17.648,14.352,32,32,32c8.824,0,16,7.176,16,16s-7.176,16-16,16s-16-7.176-16-16h-16
	c0,14.872,10.24,27.288,24,30.864v17.136h16v-17.136c13.76-3.576,24-15.992,24-30.864c0-17.648-14.352-32-32-32
	c-8.824,0-16-7.176-16-16S241.784,66.604,250.608,66.604z"/>
<rect x="306.608" y="98.604" width="16" height="16"/>
<rect x="178.608" y="98.604" width="16" height="16"/>
<g>
</g>
<g>
</g>
<g>
</g>
<g>
</g>
<g>
</g>
<g>
</g>
<g>
</g>
<g>
</g>
<g>
</g>
<g>
</g>
<g>
</g>
<g>
</g>
<g>
</g>
<g>
</g>
<g>
</g>
</svg>
