<svg height="512pt" viewBox="-13 0 512 512.001" width="512pt" xmlns="http://www.w3.org/2000/svg"><path d="m364.183594 128.621094c0 66.898437-54.230469 121.128906-121.128906 121.128906-66.894532 0-121.128907-54.230469-121.128907-121.128906 0-66.898438 54.234375-121.128906 121.128907-121.128906 66.898437 0 121.128906 54.230468 121.128906 121.128906zm0 0" fill="#d9edff"/><path d="m364.179688 128.617188c0 66.898437-54.226563 121.136718-121.125 121.136718-42.128907 0-79.234376-21.511718-100.921876-54.148437 22 22.65625 52.789063 36.734375 86.875 36.734375 66.898438 0 121.136719-54.226563 121.136719-121.125 0-24.757813-7.421875-47.773438-20.179687-66.957032 21.179687 21.808594 34.214844 51.5625 34.214844 84.359376zm0 0" fill="#b4dbff"/><path d="m260.246094 54.261719c-4.472656 3.214843-7.515625 8.359375-10.519532 15.746093-2.441406 6.007813-4.910156 12.234376-9.476562 16.839844-7.65625 7.710938-19.339844 9.214844-29.628906 12.71875-6.007813 2.042969-25.054688 8.921875-19.292969 18.769532 3.335937 5.703124 12.804687 4.621093 18.121094 3.945312 7.046875-.894531 15.496093 3.214844 20.851562 7.492188 3.511719 2.804687 6.484375 6.296874 10.285157 8.695312 5.085937 3.210938 11.515624 4.214844 17.339843 2.703125 6.757813-1.75 10.734375-7.085937 15.800781-11.058594 6.121094-4.804687 12.21875-8.320312 13.347657-16.898437 1.15625-8.765625-4.15625-17.050782-5.167969-25.832032 0-10.910156 14.160156-32.648437-4.746094-36.679687-5.496094-1.167969-12.355468.285156-16.914062 3.558594zm0 0" fill="#6fd6a2"/><path d="m287.074219 113.214844c-1.128907 8.582031-7.222657 12.097656-13.347657 16.902344-5.066406 3.976562-9.042968 9.300781-15.792968 11.058593-3.847656 1-7.953125.898438-11.769532-.207031 6.324219-1.929688 10.1875-7.015625 15.074219-10.851562 6.125-4.804688 12.21875-8.320313 13.347657-16.902344 1.160156-8.761719-4.15625-17.046875-5.164063-25.828125 0-10.5 13.105469-31.019531-2.738281-36.144531 3.464844-1.007813 7.210937-1.238282 10.480468-.539063 18.902344 4.027344 4.746094 25.773437 4.746094 36.683594 1.007813 8.78125 6.324219 17.066406 5.164063 25.828125zm0 0" fill="#43cd8e"/><path d="m358.40625 165.664062c-15.644531 48.78125-61.371094 84.089844-115.351562 84.089844-66.894532 0-121.125-54.238281-121.125-121.136718 0-5.914063.421874-11.71875 1.25-17.402344 6.671874 2.046875 13.367187 3.976562 21.039062 1.6875 12.550781-3.746094 17.644531 2.5 23.070312 14.65625 5.0625 11.339844 7.140626 25.816406 18.203126 31.492187 5.753906 2.957031 12.675781 2.636719 18.660156 5.074219 8.601562 3.515625 14.148437 12.207031 22.527344 16.203125 10.433593 4.964844 22.917968 1.648437 33.261718-3.503906 4.363282-2.179688 10.25-4.457031 13.554688-.859375 3.878906 4.203125-.410156 11.996094 3.277344 16.363281 1.367187 1.636719 3.566406 2.335937 5.695312 2.566406 9.410156.988281 17.792969-5.773437 24.105469-12.816406 5.636719-6.292969 11-13.6875 18.824219-17.414063 9.699218-4.636718 24.496093-5.234374 33.007812 1zm0 0" fill="#6fd6a2"/><path d="m358.40625 165.664062c-.039062.128907-.082031.257813-.128906.390626-.199219.628906-.410156 1.257812-.628906 1.886718-3.828126 10.960938-9.042969 21.378906-15.816407 30.792969-4.6875 6.507813-9.507812 12.144531-15.347656 17.699219-4.171875 3.964844-8.628906 7.625-13.316406 10.972656-7.046875 5.035156-15.320313 9.507812-23.265625 12.945312-10.949219 4.742188-22.46875 7.558594-34.359375 8.761719-3.257813.332031-6.664063.539063-9.808594.609375-.890625.023438-1.789063.03125-2.679687.03125-7.191407 0-14.539063-.5625-21.609376-1.917968-9.519531-1.828126-18.402343-4.683594-27.382812-8.410157-2.132812-.886719-4.242188-1.933593-6.183594-2.949219-6.75-3.523437-12.863281-7.339843-18.863281-11.988281-.308594-.238281-.621094-.480469-.917969-.71875-9.757812-7.804687-17.984375-16.441406-25.007812-26.746093-.300782-.4375-.597656-.878907-.890625-1.316407-.027344-.03125-.046875-.0625-.058594-.089843 22 22.648437 52.789063 36.722656 86.867187 36.722656 49.082032 0 91.351563-29.191406 110.386719-71.160156 6.972657-.460938 14.054688.855468 19.011719 4.484374zm0 0" fill="#43cd8e"/><path d="m291.890625 51.976562c-2.648437-4.410156-7.078125-7.304687-13.167969-8.601562-7.574218-1.613281-16.546875.273438-22.847656 4.800781-6.675781 4.796875-10.363281 12.300781-13.089844 19.011719l-.167968.410156c-2.199219 5.417969-4.277344 10.539063-7.6875 13.96875-6.757813 6.8125-18.007813 7.9375-26.722657 10.90625-14.136719 4.8125-21.941406 10.320313-24.546875 17.320313-1.507812 4.046875-1.082031 8.421875 1.199219 12.324219 5.902344 10.09375 19.660156 8.34375 25.535156 7.597656 11.285157-1.429688 17.980469 9.90625 26.191407 15.089844 4.757812 3.003906 10.269531 4.5625 15.824218 4.5625 2.480469 0 4.96875-.3125 7.398438-.941407 7.304687-1.894531 15.308594-9.121093 21.050781-13.890625 6.566406-5.457031 12.476563-11.496094 13.644531-20.339844.90625-6.898437-1.089844-13.148437-2.851562-18.664062-1.902344-5.953125-1.957032-11.199219-.210938-17.304688 2.335938-8.136718 5.242188-18.265624.449219-26.25zm-12.242187 60.261719c-.800782 6.078125-6.6875 8.941407-10.960938 12.28125-4.152344 3.253907-7.269531 8.007813-12.644531 9.402344-11.335938 2.9375-18.738281-9.453125-27.511719-14.308594-5.199219-2.875-11.078125-4.945312-17.074219-4.945312-.988281 0-1.972656.058593-2.953125.183593-7.621094.96875-9.902344.265626-10.5625-.183593.804688-1.046875 4.015625-4.234375 15.097656-8.011719 2.34375-.796875 4.789063-1.488281 7.382813-2.222656 8.429687-2.390625 17.988281-5.097656 25.148437-12.308594 5.523438-5.566406 8.398438-12.644531 10.933594-18.890625l.164063-.40625c2.726562-6.703125 5.101562-10.433594 7.953125-12.480469 2.847656-2.046875 7.566406-3.039062 10.980468-2.316406 1.046876.226562 2.890626.738281 3.441407 1.660156 1.441406 2.398438-.632813 9.621094-2.003907 14.402344-1.347656 4.703125-2.625 9.148438-2.625 13.289062 0 .285157.019532.574219.050782.855469.492187 4.265625 1.722656 8.125 2.914062 11.855469 1.46875 4.597656 2.738282 8.570312 2.269532 12.144531zm0 0"/><path d="m58.34375 452.53125h115.4375v51.976562h-115.4375zm0 0" fill="#ffa812"/><path d="m153.722656 452.53125h20.058594v51.976562h-20.058594zm0 0" fill="#ff9a00"/><path d="m7.554688 227.796875c-.507813 10.585937 2.085937 21.085937 7.457031 30.222656l61.207031 104.070313c7.527344 12.800781 3.332031 36.746094 3.132812 51.621094-.179687 13.320312-.359374 26.636718-.539062 39.957031l81.988281-.136719-.082031-40.378906c-.003906-5.941406 1.050781-11.835938 3.121094-17.40625 2.273437-6.113282 4.546875-12.214844 6.667968-18.359375 1.847657-5.351563 2.851563-10.984375 2.972657-16.644531.238281-11.078126-2.960938-22.117188-9.089844-31.351563 0 0 0 0-.003906-.007813-8.421875-12.6875-15.660157-26.128906-21.617188-40.144531l-36.839843-86.671875c-4.648438-10.9375-16.5625-16.5625-27.726563-13.648437l-6.683594-115.402344c-.894531-15.484375-13.882812-27.8125-29.378906-27.179687-14.867187.609374-26.496094 12.417968-27.191406 26.9375l-1.460938 30.515624zm0 0" fill="#fed2a4"/><path d="m173.480469 360.738281c-.117188 5.664063-1.128907 11.300781-2.976563 16.644531-2.117187 6.152344-4.394531 12.246094-6.664062 18.363282-2.066406 5.574218-3.125 11.46875-3.117188 17.402344l.082032 40.382812-81.992188.136719v-.039063l55.746094-.097656-.078125-40.382812c0-5.933594 1.046875-11.828126 3.125-17.402344 2.269531-6.117188 4.546875-12.210938 6.664062-18.363282 1.847657-5.34375 2.859375-10.980468 2.976563-16.644531.582031-26.964843-18.0625-46.984375-29-69.953125-11.351563-23.828125-19.59375-48.953125-29.902344-73.210937-2.867188-6.753907-8.507812-11.480469-15.03125-13.425781-7.746094-2.3125-13.324219-9.070313-13.898438-17.132813l-8.085937-113.503906c-.667969-11.558594-8.082031-21.371094-18.253906-25.316407 2.820312-1.078124 5.867187-1.726562 9.0625-1.859374 15.496093-.636719 28.484375 11.691406 29.382812 27.175781l6.683594 115.410156c11.167969-2.917969 23.078125 2.707031 27.722656 13.644531l36.84375 86.667969c2.980469 7.015625 6.277344 13.878906 9.882813 20.570313 3.605468 6.707031 7.523437 13.238281 11.738281 19.582031 6.125 9.242187 9.332031 20.273437 9.089844 31.351562zm0 0" fill="#ffbd86"/><path d="m173.597656 453.53125h-115.253906l.1875-27.488281c.035156-5.328125 4.382812-9.621094 9.710938-9.585938l95.953124.644531c5.332032.035157 9.621094 4.382813 9.585938 9.714844zm0 0" fill="#fff5f5"/><path d="m173.78125 426.816406-.179688 26.714844h-19.769531l.1875-26.714844c.03125-5.328125-4.253906-9.683594-9.589843-9.710937h19.769531c5.328125.027343 9.621093 4.382812 9.582031 9.710937zm0 0" fill="#efe2dd"/><path d="m168.324219 410.148438c.28125-4.035157 1.125-7.988282 2.539062-11.792969l.132813-.359375c2.207031-5.925782 4.484375-12.054688 6.59375-18.164063 2.105468-6.109375 3.246094-12.476562 3.382812-18.929687.269532-12.542969-3.402344-25.203125-10.34375-35.660156-8.144531-12.277344-15.199218-25.375-20.960937-38.933594l-36.839844-86.671875c-.003906-.011719-.011719-.023438-.015625-.035157-3.164062-7.414062-10.578125-14.4375-18.292969-17.160156-2.996093-1.058594-6.109375-1.632812-9.238281-1.742187-.015625 0-.03125-.003907-.050781-.003907l-6.230469-107.613281c-1.136719-19.667969-17.820312-35.019531-37.167969-34.234375-18.699219.769532-33.472656 15.414063-34.363281 34.070313l-7.3984375 154.519531c-.5742185 12.074219 2.3554685 23.960938 8.4843755 34.378906l61.203124 104.074219c4.582032 7.789063 3.550782 23.183594 2.71875 35.554687-.175781 2.621094-.335937 5.136719-.457031 7.546876l-3.722656-.027344c-.039063 0-.078125 0-.121094 0-4.535156 0-8.804687 1.753906-12.035156 4.941406-3.261719 3.214844-5.070313 7.511719-5.101563 12.085938l-.175781 25.945312c0 .070312-.007812.136719-.007812.207031v52.363281c0 4.136719 3.351562 7.492188 7.492187 7.492188h115.25c4.140625 0 7.492188-3.355469 7.492188-7.492188v-50.15625l.1875-27.488281c.050781-8.039062-5.480469-14.828125-12.953125-16.714843zm-146.855469-155.929688c-4.644531-7.898438-6.867188-16.914062-6.429688-26.066406l7.394532-154.519532c.519531-10.847656 9.121094-19.363281 20.011718-19.808593 11.230469-.480469 20.925782 8.566406 21.59375 20.125l6.363282 109.921875c-.328125.160156-.65625.316406-.980469.492187-14.082031 7.507813-20.121094 25.140625-13.742187 40.144531l45.582031 107.242188c1.621093 3.808594 6.019531 5.585938 9.828125 3.964844s5.582031-6.019532 3.964844-9.828125l-45.582032-107.242188c-3.367187-7.917969-.292968-17.171875 7-21.058593 1.335938-.710938 2.726563-1.207032 4.148438-1.53125.28125-.0625.566406-.132813.851562-.179688.148438-.023438.296875-.039062.449219-.058594 1.789063-.25 3.578125-.195312 5.300781.144532.019532.003906.039063.007812.058594.011718 10.074219 1.957032 12.464844 11.195313 15.902344 19.285156 4.8125 11.320313 9.625 22.636719 14.433594 33.957032 6.085937 14.316406 12.171874 28.636718 18.257812 42.953125 6.125 14.40625 13.617188 28.320312 22.277344 41.367187 5.257812 7.929688 8.042968 17.535156 7.839844 27.046875-.105469 4.894531-.96875 9.726563-2.566407 14.359375-2.050781 5.941406-4.296875 11.988282-6.472656 17.832032l-.132813.359374c-1.96875 5.289063-3.121093 10.789063-3.46875 16.402344l-66.335937-.445312c.109375-2.101563.257813-4.332032.414063-6.640625 1.019531-15.175781 2.171874-32.378907-4.753907-44.15625zm144.636719 242.796875h-100.265625v-35.941406l100.265625.671875zm.058593-51.640625-100.265624-.671875.125-18.609375c.003906-.738281.351562-1.234375.640624-1.519531.289063-.285157.785157-.621094 1.515626-.621094h.015624l95.949219.640625c1.191407.007812 2.152344.984375 2.144531 2.171875zm0 0"/><path d="m312.515625 504.507812v-51.203124l115.25-.773438v51.976562zm0 0" fill="#e63950"/><path d="m312.515625 504.507812v-51.203124l115.25-.773438v51.976562zm0 0" fill="#ffa812"/><path d="m407.589844 452.660156h20.179687v51.851563h-20.179687zm0 0" fill="#ff9a00"/><path d="m478.554688 226.796875c.507812 10.585937-2.082032 21.085937-7.457032 30.222656l-61.203125 104.070313c-7.527343 12.800781-3.335937 36.746094-3.136719 51.625.179688 13.316406.359376 26.636718.539063 39.953125l-81.984375-.136719.078125-40.378906c.003906-5.941406-1.050781-11.835938-3.121094-17.40625-2.273437-6.109375-4.542969-12.210938-6.664062-18.359375-1.847657-5.351563-2.855469-10.984375-2.976563-16.644531-.238281-11.078126 2.964844-22.117188 9.089844-31.351563 0 0 0 0 .003906-.003906 8.421875-12.691407 15.660156-26.132813 21.617188-40.148438l36.839844-86.667969c4.648437-10.941406 16.5625-16.566406 27.726562-13.652343l6.683594-115.402344c.898437-15.484375 13.882812-27.8125 29.382812-27.179687 14.863282.609374 26.492188 12.421874 27.1875 26.941406l1.460938 30.511718zm0 0" fill="#fed2a4"/><path d="m471.097656 257.015625-61.199218 104.070313c-7.535157 12.808593-3.339844 36.746093-3.136719 51.621093.179687 13.328125.359375 26.644531.539062 39.964844l-22.738281-.042969c-.179688-13.304687-.359375-26.601562-.539062-39.921875-.203126-14.875-4.398438-38.8125 3.125-51.621093l61.210937-104.070313c5.375-9.128906 7.964844-19.628906 7.453125-30.21875l-5.933594-124.003906-1.457031-30.519531c-.53125-10.921876-7.234375-20.300782-16.855469-24.539063 3.785156-1.707031 7.992188-2.578125 12.410156-2.398437 14.863282.613281 26.492188 12.421874 27.183594 26.9375l1.457032 30.519531 5.933593 124.003906c.511719 10.589844-2.078125 21.089844-7.453125 30.21875zm0 0" fill="#ffbd86"/><path d="m312.515625 453.304688 115.25-.773438-.183594-27.488281c-.035156-5.328125-4.382812-9.617188-9.714843-9.585938l-95.953126.644531c-5.328124.035157-9.617187 4.382813-9.585937 9.714844zm0 0" fill="#fff5f5"/><path d="m427.765625 425.167969-.179687 27.484375h-19.773438l.191406-27.484375c.03125-5.324219-4.257812-9.679688-9.589844-9.710938h19.769532c5.324218.03125 9.621094 4.386719 9.582031 9.710938zm0 0" fill="#efe2dd"/><path d="m486.039062 226.4375-7.394531-154.519531c-.894531-18.65625-15.667969-33.300781-34.367187-34.070313-19.34375-.796875-36.027344 14.566406-37.167969 34.234375l-6.230469 107.613281c-.023437.003907-.046875.003907-.070312.007813-3.121094.109375-6.230469.683594-9.214844 1.738281-3.625 1.28125-7 3.242188-9.914062 5.746094-3.621094 3.109375-6.546876 7.105469-8.394532 11.449219 0 0-14.890625 35.035156-14.890625 35.035156l-21.949219 51.636719c-5.765624 13.558594-12.816406 26.65625-20.96875 38.941406-6.933593 10.449219-10.605468 23.113281-10.335937 35.652344.136719 6.457031 1.273437 12.824218 3.382813 18.929687 2.105468 6.109375 4.386718 12.238281 6.59375 18.167969l.132812.359375c1.414062 3.804687 2.257812 7.757813 2.539062 11.789063-7.472656 1.890624-13.003906 8.675781-12.949218 16.71875l.183594 27.488281v51.152343c0 4.140626 3.351562 7.492188 7.492187 7.492188h115.25c4.140625 0 7.496094-3.351562 7.496094-7.492188 0 0 0-51.976562 0-52.027343l-.1875-27.484375c-.027344-4.578125-1.839844-8.871094-5.101563-12.089844-3.230468-3.1875-7.5-4.9375-12.035156-4.9375-.039062 0-.078125 0-.117188 0l-3.726562.023438c-.117188-2.410157-.28125-4.925782-.457031-7.546876-.832031-12.371093-1.863281-27.765624 2.71875-35.554687l31.820312-54.109375c2.097657-3.566406.90625-8.160156-2.660156-10.257812-3.566406-2.097657-8.160156-.90625-10.257813 2.660156l-31.820312 54.109375c-6.925781 11.777343-5.773438 28.980469-4.753906 44.15625.15625 2.308593.304687 4.542969.414062 6.644531l-66.335937.441406c-.347657-5.609375-1.5-11.113281-3.46875-16.398437l-.132813-.363281c-2.175781-5.84375-4.421875-11.890626-6.472656-17.832032-1.597656-4.632812-2.460938-9.464844-2.566406-14.359375-.203125-9.511719 2.582031-19.117187 7.847656-27.054687 8.652344-13.039063 16.144531-26.953125 22.265625-41.355469l36.839844-86.671875c.011719-.027344.027343-.050781.039062-.082031.535157-1.234375 1.359375-2.582031 2.1875-3.640625.011719-.015625.019531-.027344.03125-.042969 2.085938-2.59375 4.925781-4.46875 8.070313-5.402344.039062-.015625.082031-.027343.121094-.039062 4.214843-1.195313 8.226562-.78125 12.113281 1.292969 7.292969 3.890624 10.371093 13.140624 7.003906 21.0625l-45.585937 107.238281c-1.617188 3.808593.15625 8.210937 3.964843 9.828125 3.804688 1.621094 8.207031-.15625 9.828125-3.964844l45.582032-107.242188c6.378906-15 .34375-32.632812-13.738282-40.144531-.324218-.175781-.65625-.332031-.984375-.492187l6.363281-109.921875c.671876-11.554688 10.34375-20.585938 21.59375-20.125 10.890626.445312 19.496094 8.960937 20.011719 19.808593l7.394531 154.523438c.4375 9.152344-1.785156 18.164062-6.429687 26.0625l-11.65625 19.824219c-2.097656 3.566406-.90625 8.160156 2.660156 10.257812 3.566407 2.097657 8.15625.902344 10.257813-2.660156l11.65625-19.824219c6.125-10.417968 9.058594-22.304687 8.480468-34.378906zm-65.765624 270.578125h-100.265626v-36.269531l100.265626-.671875zm-98.308594-73.421875 95.953125-.640625h.015625c.730468 0 1.226562.335937 1.511718.621094.292969.285156.640626.78125.644532 1.519531l.132812 19.992188-100.265625.671874-.132812-19.992187c-.007813-1.191406.953125-2.164063 2.140625-2.171875zm0 0"/><path d="m243.054688 0c-23.863282 0-47.167969 6.585938-67.386719 19.046875-3.523438 2.171875-4.621094 6.785156-2.449219 10.308594 2.171875 3.523437 6.789062 4.617187 10.308594 2.449219 17.855468-11.003907 38.441406-16.820313 59.527344-16.820313 62.660156 0 113.636718 50.976563 113.636718 113.636719 0 9.132812-1.089844 18.015625-3.132812 26.53125-3.410156-.992188-7.152344-1.523438-11.148438-1.558594-7.066406-.0625-14.304687 1.472656-20.234375 4.304688-7.859375 3.746093-13.398437 10.179687-18.285156 15.855468-.96875 1.125-1.929687 2.242188-2.894531 3.320313-6.648438 7.417969-12.625 10.910156-17.722656 10.371093-.253907-.027343-.457032-.0625-.617188-.097656-.054688-.761718-.003906-1.972656.03125-2.84375.152344-3.667968.386719-9.207031-3.675781-13.613281-5-5.4375-12.542969-5.699219-22.414063-.773437-7.5625 3.769531-18.335937 7.429687-26.691406 3.449218-8.183594-3.898437-13.371094-11.832031-21.945312-15.871094-6.074219-2.859374-13.125-2.269531-19.054688-5.316406-5.613281-2.882812-8.273438-10.375-11.09375-18.308594-1.121094-3.160156-2.28125-6.429687-3.683594-9.5625-3.902344-8.746093-11.160156-25.019531-32.050781-18.785156-3.460937 1.03125-6.6875.867188-10.347656.070313 4.007812-19.601563 13.148437-37.90625 26.703125-53.019531 2.761718-3.078126 2.503906-7.816407-.574219-10.578126-3.082031-2.765624-7.820313-2.507812-10.582031.574219-9.199219 10.253907-16.734375 21.984375-22.21875 34.625-7.324219 16.875-10.625 32.859375-10.625 51.226563 0 43.605468 21.816406 82.203125 55.101562 105.476562 11.863282 8.292969 25.117188 14.574219 39.070313 18.457032 37.660156 10.492187 79.402343 2.859374 110.960937-20.535157 26.054688-19.3125 44.082032-48.207031 49.964844-79.953125 1.429688-7.726562 2.144531-15.585937 2.144531-23.445312 0-70.921875-57.699219-128.621094-128.621093-128.621094zm20.148437 240.46875c-.074219.011719-.144531.023438-.214844.035156-6.699219 1.191406-12.59375 1.71875-19.472656 1.746094-.152344 0-.308594.007812-.460937.007812-25.453126 0-48.980469-8.414062-67.945313-22.605468-29.671875-22.203125-49.683594-61.28125-45.285156-98.761719 5.632812.425781 10.964843.855469 16.539062-.808594 5.886719-1.757812 8.503907-1.972656 14.085938 10.535157 1.160156 2.597656 2.171875 5.449218 3.242187 8.46875 3.503906 9.859374 7.472656 21.035156 18.375 26.628906 4.113282 2.113281 8.386719 2.898437 12.15625 3.589844 2.617188.484374 5.089844.9375 7.097656 1.753906 3.308594 1.355468 6.398438 4.101562 9.675782 7.007812 3.515625 3.125 7.5 6.660156 12.464844 9.027344 10.933593 5.207031 24.703124 3.972656 39.824218-3.566406 2.199219-1.097656 3.621094-1.582032 4.484375-1.796875.007813.6875-.027343 1.511719-.054687 2.148437-.144532 3.542969-.371094 8.894532 3.308594 13.253906 2.445312 2.921876 6.125 4.726563 10.664062 5.214844 10.167969 1.066406 20.425781-4.066406 30.472656-15.273437 1.03125-1.152344 2.058594-2.34375 3.089844-3.542969 4.304688-4.996094 8.363281-9.71875 13.378906-12.105469 6.234375-2.976562 14.449219-3.613281 20.464844-1.953125-14.101562 36.476563-46.503906 63.917969-85.890625 70.996094zm0 0"/></svg>