<svg height="512pt" viewBox="0 0 512.00001 512" width="512pt" xmlns="http://www.w3.org/2000/svg"><path d="m9.371094 5.621094h134.890625v241.683594h-134.890625zm0 0" fill="#fef0bd"/><path d="m9.371094 35.597656h133.019531v176.109375h-133.019531zm0 0" fill="#7fddff"/><path d="m9.371094 35.597656h29.976562v176.109375h-29.976562zm0 0" fill="#1fb5f3"/><path d="m116.160156 37.46875h185.480469v112.414062h-185.480469zm0 0" fill="#fff"/><path d="m7.496094 7.492188h136.765625v29.976562h-136.765625zm0 0" fill="#fe7829"/><path d="m13.117188 209.832031h136.765624v35.597657h-136.765624zm0 0" fill="#fe7829"/><path d="m116.160156 37.46875h33.722656v112.414062h-33.722656zm0 0" fill="#b9ecff"/><path d="m511.597656 288.269531v-8.992187l-170.613281-106.914063 170.613281-1.875zm0 0" fill="#ff9c43"/><path d="m503.976562 503.976562.519532-226.695312-165.386719-104.917969h-3.230469l-165.386718 104.917969.375 233.8125" fill="#fef0bd"/><path d="m511.597656 247.699219h-54.457031l-56.207031-35.992188 110.664062-1.875zm0 0" fill="#fe7829"/><path d="m202.34375 305.757812 165.386719-104.917968h3.226562l133.519531 84.699218.019532-8.257812-165.386719-104.917969h-3.230469l-165.386718 104.917969.375 233.8125 31.804687-.679688zm0 0" fill="#ffec76"/><path d="m359.71875 232.316406c0 12.414063-10.066406 22.480469-22.484375 22.480469-12.414063 0-22.480469-10.066406-22.480469-22.480469 0-12.417968 10.066406-22.484375 22.480469-22.484375 12.417969 0 22.484375 10.066407 22.484375 22.484375zm0 0" fill="#b9ecff"/><path d="m172.367188 472.125h67.445312v31.851562h-67.445312zm0 0" fill="#ff9c43"/><path d="m172.367188 472.125h29.976562v31.851562h-29.976562zm0 0" fill="#fe7829"/><path d="m434.660156 472.125h67.445313v31.851562h-67.445313zm0 0" fill="#ff9c43"/><path d="m239.988281 367.207031h194.253907v143.886719h-194.253907zm0 0" fill="#fff"/><path d="m267.914062 367.207031v143.886719h-27.925781v-143.886719" fill="#e3f0fb"/><path d="m232.320312 282.902344h207.957032v46.835937h-207.957032zm0 0" fill="#b9ecff"/><g fill="#de9c2f"><path d="m282.902344 442.148438h37.472656v29.976562h-37.472656zm0 0"/><path d="m267.914062 470.253906h37.472657v29.972656h-37.472657zm0 0"/><path d="m307.257812 470.253906h37.472657v29.972656h-37.472657zm0 0"/><path d="m324.121094 440.277344h37.46875v29.976562h-37.46875zm0 0"/><path d="m307.257812 410.300781h37.472657v29.976563h-37.472657zm0 0"/></g><path d="m357.84375 440.277344h50.585938v29.976562h-50.585938zm0 0" fill="#d37e0e"/><path d="m346.601562 410.300781h50.585938v29.976563h-50.585938zm0 0" fill="#d37e0e"/><path d="m344.730469 472.125h37.46875v29.976562h-37.46875zm0 0" fill="#de9c2f"/><path d="m382.199219 472.125h50.585937v29.976562h-50.585937zm0 0" fill="#d37e0e"/><path d="m331.613281 232.316406c0-9.433594 5.816407-17.507812 14.054688-20.84375-2.605469-1.050781-5.449219-1.640625-8.433594-1.640625-12.414063 0-22.480469 10.066407-22.480469 22.484375 0 12.414063 10.066406 22.480469 22.480469 22.480469 2.984375 0 5.828125-.585937 8.433594-1.640625-8.238281-3.335938-14.054688-11.40625-14.054688-20.839844zm0 0" fill="#7fddff"/><path d="m266.042969 329.738281h-33.722657v-46.835937h86.179688zm0 0" fill="#7fddff"/><path d="m194.847656 299.761719h14.988282v14.988281h-14.988282zm0 0"/><path d="m464.632812 299.761719h14.988282v14.988281h-14.988282zm0 0"/><path d="m224.824219 277.28125v59.953125h224.820312v-59.953125zm82.433593 14.988281h22.484376v29.976563h-22.484376zm-14.988281 29.976563h-22.480469v-29.976563h22.480469zm52.460938-29.976563h22.480469v29.976563h-22.480469zm37.46875 0h22.484375v29.976563h-22.484375zm-142.386719 0h14.988281v29.976563h-14.988281zm194.847656 29.976563h-14.988281v-29.976563h14.988281zm0 0"/><path d="m337.234375 262.292969c-16.527344 0-29.976563-13.449219-29.976563-29.976563 0-16.53125 13.449219-29.976562 29.976563-29.976562 16.53125 0 29.976563 13.445312 29.976563 29.976562 0 16.527344-13.445313 29.976563-29.976563 29.976563zm0-44.964844c-8.261719 0-14.988281 6.722656-14.988281 14.988281s6.726562 14.988282 14.988281 14.988282c8.265625 0 14.988281-6.722657 14.988281-14.988282s-6.722656-14.988281-14.988281-14.988281zm0 0"/><path d="m337.234375 262.292969c-16.527344 0-29.976563-13.449219-29.976563-29.976563 0-16.53125 13.449219-29.976562 29.976563-29.976562 16.53125 0 29.976563 13.445312 29.976563 29.976562 0 16.527344-13.445313 29.976563-29.976563 29.976563zm0-44.964844c-8.261719 0-14.988281 6.722656-14.988281 14.988281s6.726562 14.988282 14.988281 14.988282c8.265625 0 14.988281-6.722657 14.988281-14.988282s-6.722656-14.988281-14.988281-14.988281zm0 0"/><path d="m141.265625 116.53125-8.992187-11.988281 34.21875-25.664063 22.035156 14.691406 37.15625-33.617187h23.496094v14.988281h-17.722657l-41.53125 37.574219-22.925781-15.285156zm0 0" fill="#ff9c43"/><path d="m264.167969 59.953125h14.988281v14.988281h-14.988281zm0 0" fill="#fe7829"/><path d="m134.894531 359.714844h14.988281v14.988281h-14.988281zm0 0" fill="#c2d8e7"/><path d="m104.917969 359.714844h14.988281v14.988281h-14.988281zm0 0" fill="#c2d8e7"/><path d="m74.945312 359.714844h14.988282v14.988281h-14.988282zm0 0" fill="#c2d8e7"/><path d="m59.957031 374.703125h-18.738281c-14.460938 0-26.226562-11.765625-26.226562-26.230469 0-14.460937 11.765624-26.226562 26.226562-26.226562h27.214844c3.589844 0 6.511718-2.921875 6.511718-6.511719v-15.972656h14.988282v15.972656c0 11.855469-9.644532 21.5-21.5 21.5h-27.214844c-6.195312 0-11.238281 5.042969-11.238281 11.238281 0 6.199219 5.042969 11.242188 11.238281 11.242188h18.738281zm0 0" fill="#afc4d9"/><path d="m74.945312 269.785156h14.988282v14.988282h-14.988282zm0 0" fill="#c2d8e7"/><path d="m69.324219 29.976562h14.988281v14.988282h-14.988281zm0 0"/><path d="m31.851562 74.941406h14.988282v14.988282h-14.988282zm0 0" fill="#fff"/><path d="m31.851562 104.917969h14.988282v14.988281h-14.988282zm0 0" fill="#fe7829"/><path d="m61.828125 104.917969h52.460937v14.988281h-52.460937zm0 0" fill="#ff9c43"/><path d="m31.851562 134.894531h14.988282v14.988281h-14.988282zm0 0" fill="#fff"/><path d="m31.851562 164.871094h14.988282v14.984375h-14.988282zm0 0" fill="#fff"/><path d="m61.828125 164.871094h59.953125v14.984375h-59.953125zm0 0"/><path d="m226.699219 112.410156h52.457031v14.988282h-52.457031zm0 0"/><path d="m486 256.671875h25.597656v-14.988281h-49.226562l-38.390625-24.355469h87.617187v-14.988281h-111.246094l-35.4375-22.484375h146.683594v-14.984375h-177.894531l-170.703125 108.289062v223.179688l-162.9921875-.066406-.0078125 14.988281 511.457031.210937.542969-238.308594zm-59.253906 118.03125v89.929687h-10.824219v-29.976562h-14.988281v-29.976562h-101.167969v29.976562h-22.484375v29.976562h-14.984375v31.75l-14.816406-.007812v-121.671875zm-74.523438 44.964844h33.722656v14.988281h-33.722656zm14.988282 44.964843v-14.988281h33.722656v14.988281zm-37.46875-14.988281h22.480468v14.988281h-22.480468zm22.480468 29.976563h22.484375v14.988281h-22.484375zm-14.988281-44.964844h-22.480469v-14.988281h22.480469zm-37.46875 44.964844v14.988281h-22.484375v-14.988281zm-7.496094-14.988282v-14.988281h22.484375v14.988281zm22.484375 14.988282h22.480469v16.792968l-22.480469-.011718zm74.941406 0h37.050782v16.828125l-37.050782-.015625zm52.039063 16.835937v-121.753906h15.40625v-14.988281h-239.808594v14.988281h15.160157v121.667969l-54.503907-.023438v-16.726562h39.34375v-14.988282h-39.34375v-183.230468l159.507813-101.1875 119.644531 75.898437v.558594h.878906l38.972657 24.722656-.417969 183.238281h-39.433594v14.988282h39.398437l-.039062 16.855468zm0 0"/><path d="m151.757812 29.976562v-29.976562h-149.882812v254.796875h149.882812v-97.421875h157.375v-127.398438zm-14.988281 209.832032h-119.90625v-22.480469h119.90625zm0-37.46875h-119.90625v-157.375h37.472657v-14.988282h-37.472657v-14.988281h119.90625v14.988281h-29.976562v44.964844h-44.964844v14.988282h44.964844v44.964843h-44.964844v14.988281h44.964844v7.492188h29.976562zm157.375-59.953125h-172.363281v-97.421875h172.363281zm0 0"/></svg>