<svg height="512pt" viewBox="0 0 512 512" width="512pt" xmlns="http://www.w3.org/2000/svg"><path d="m51 501h451v-251c-34.632812 0-338.285156 0-451 0zm0 0" fill="#ff641a"/><path d="m502 10v20c0 11.050781-8.949219 20-20 20-21.761719 0-433.351562 0-452 0-11.050781 0-20-8.949219-20-20v-20zm0 0" fill="#7c8388"/><path d="m502 0h-492c-5.523438 0-10 4.476562-10 10v20c0 16.542969 13.457031 30 30 30h177.007812c3.984376 19.5625 19.429688 35.007812 38.992188 38.992188v31.476562c0 5.523438 4.476562 10 10 10 11.027344 0 20 8.972656 20 20 0 20.847656-22.316406 19.816406-22.429688 19.84375-9.996093-1.179688-17.570312-9.550781-17.570312-19.84375 0-5.519531-4.476562-10-10-10s-10 4.480469-10 10c0 13.265625 6.300781 24.933594 16.128906 32.191406l-78.898437 47.339844h-143.230469c-5.523438 0-10 4.476562-10 10v252c0 5.523438 4.476562 10 10 10h201c5.523438 0 10-4.476562 10-10s-4.476562-10-10-10h-191v-232h472v232h-191c-5.523438 0-10 4.476562-10 10s4.476562 10 10 10h201c5.523438 0 10-4.476562 10-10v-252c0-5.523438-4.476562-10-10-10h-143.230469l-78.898437-47.339844c9.828125-7.257812 16.128906-18.925781 16.128906-32.191406 0-18.601562-12.765625-34.28125-30-38.734375v-22.742187c19.5625-3.984376 35.007812-19.429688 38.992188-38.992188h177.007812c16.542969 0 30-13.457031 30-30v-20c0-5.523438-4.476562-10-10-10zm-309.894531 240 63.894531-38.339844 63.894531 38.339844zm63.894531-160c-13.035156 0-24.152344-8.371094-28.28125-20.011719h56.5625c-4.128906 11.640625-15.246094 20.011719-28.28125 20.011719zm236-50c0 5.515625-4.484375 10-10 10h-452c-5.515625 0-10-4.484375-10-10v-10h472zm0 0"/><path d="m266 502c0 5.523438-4.476562 10-10 10s-10-4.476562-10-10 4.476562-10 10-10 10 4.476562 10 10zm0 0"/><path d="m256 280c-5.523438 0-10 4.476562-10 10v172c0 5.523438 4.476562 10 10 10s10-4.476562 10-10v-172c0-5.523438-4.476562-10-10-10zm0 0"/><path d="m327 462v-172c0-5.523438-4.476562-10-10-10s-10 4.476562-10 10v172c0 5.523438 4.476562 10 10 10s10-4.476562 10-10zm0 0"/><path d="m388 462v-172c0-5.523438-4.476562-10-10-10s-10 4.476562-10 10v172c0 5.523438 4.476562 10 10 10s10-4.476562 10-10zm0 0"/><path d="m185 290v172c0 5.523438 4.476562 10 10 10s10-4.476562 10-10v-172c0-5.523438-4.476562-10-10-10s-10 4.476562-10 10zm0 0"/><path d="m124 290v172c0 5.523438 4.476562 10 10 10s10-4.476562 10-10v-172c0-5.523438-4.476562-10-10-10s-10 4.476562-10 10zm0 0"/><path d="m62 290v172c0 5.523438 4.476562 10 10 10s10-4.476562 10-10v-172c0-5.523438-4.476562-10-10-10s-10 4.476562-10 10zm0 0"/><path d="m450 462v-172c0-5.523438-4.476562-10-10-10s-10 4.476562-10 10v172c0 5.523438 4.476562 10 10 10s10-4.476562 10-10zm0 0"/></svg>